<svg version="1.1" xmlns="http://www.w3.org/2000/svg" viewBox="0 0 982 526.0110778808594" width="982" height="526.0110778808594">
  <!-- svg-source:excalidraw -->
  
  <defs>
    <style>
      @font-face {
        font-family: "Virgil";
        src: url("https://excalidraw.com/Virgil.woff2");
      }
      @font-face {
        font-family: "Cascadia";
        src: url("https://excalidraw.com/Cascadia.woff2");
      }
    </style>
  </defs>
  <rect x="0" y="0" width="982" height="526.0110778808594" fill="#ffffff"></rect><g stroke-opacity="0.6" fill-opacity="0.6" stroke-linecap="round" transform="translate(10 10) rotate(0 481 253.0055389404297)"><path d="M-0.32 0.36 C304.83 -2.04, 610.67 -2.01, 962.31 -0.78 M0.06 -0.29 C379.55 2.44, 759.47 2.46, 962.29 0.33 M961.7 0.33 C963.21 188.49, 964.01 377.65, 961.97 505.88 M962 0.26 C959.92 102.86, 960.29 206.16, 961.75 506.3 M961.85 505.26 C630.02 507.85, 296.1 508.13, -0.26 505.27 M961.88 506.35 C586.01 507.06, 210.71 507.05, 0.39 506.01 M-0.71 505.57 C-1.94 369.44, -1.65 231.23, 0.53 -0.48 M-0.24 505.74 C-0.15 387.14, -0.44 267.94, 0.15 0.24" stroke="#000000" stroke-width="1" fill="none"></path></g><g stroke-opacity="0.6" fill-opacity="0.6" stroke-linecap="round" transform="translate(20.968292236328125 17.991363525390625) rotate(0 467.8163146972656 36.804237365722656)"><path d="M-0.38 0.12 C261.55 0.49, 523.45 2.07, 935.61 -0.35 M-0.1 -0.02 C239.44 -1.28, 478.2 -1.3, 935.33 -0.12 M935.87 -0.24 C935.48 26.85, 936.58 52.71, 936.8 73.75 M934.92 0.22 C934.93 16.31, 936.51 31.23, 935.33 74.35 M935.17 74.02 C645.08 73.74, 353.23 73.22, -0.78 74.07 M935.97 73.27 C662.38 72.76, 389.62 72.67, -0.17 73.68 M-1.42 75.01 C-1.18 46.67, -0.43 20.79, 0.68 0.65 M-0.92 72.76 C-0.1 53.72, -0.08 35.59, -0.68 -0.14" stroke="#000000" stroke-width="1" fill="none"></path></g><g stroke-linecap="round"><g stroke-opacity="0.6" fill-opacity="0.6" transform="translate(21.33123779296875 53.63456726074219) rotate(0 467.50038936025 -0.6523874184349552)"><path d="M0.94 -1.07 C156.66 -1.61, 779.19 -2.24, 935.03 -2.29 M-0.02 0.98 C155.48 0.55, 778.16 -0.12, 934.11 -0.84" stroke="#000000" stroke-width="1" fill="none"></path></g></g><g stroke-opacity="0.6" fill-opacity="0.6" stroke-linecap="round" transform="translate(24.500335693359375 108.88404846191406) rotate(0 199.50067138671875 85.00544738769531)"><path d="M0.5 -0.47 C142.58 -1.38, 287.35 -2.56, 399.56 -0.86 M-0.24 -0.34 C152.05 1.93, 303.38 2.2, 399.13 -0.21 M399.59 0.89 C398.36 58.04, 399.34 115.11, 397.08 169.34 M399.23 -0.87 C398.48 37.25, 398.27 73.81, 399.56 170.05 M398.97 170.15 C251.68 167.69, 106.31 167.26, -1.13 169.17 M398.66 169.51 C272.1 168.82, 145.19 168.65, -0.23 169.96 M0.87 169.8 C-2.95 103.51, -2.79 38.86, 0.12 0.84 M-0.08 169.86 C1.65 108.4, 1.66 47.93, 0.42 0.68" stroke="#000000" stroke-width="1" fill="none"></path></g><g stroke-opacity="0.6" fill-opacity="0.6" stroke-linecap="round" transform="translate(25.552886962890625 294.1825408935547) rotate(0 200.5 75.21208190917969)"><path d="M0.52 0.94 C112.61 1.51, 225.92 1.09, 401.77 -0.85 M-0.42 0.03 C131.95 -2.2, 263.51 -2.42, 400.48 -0.02 M401.19 1.32 C400.02 31.4, 399.8 59.92, 401.92 149.13 M400.98 -0.77 C401.16 53.56, 401.07 107.05, 401.05 150.5 M399.99 149.68 C299.2 149.84, 196.46 151.52, 0.9 150.36 M401.34 150.27 C292.2 149.16, 183.17 149.33, -0.53 150.83 M0.95 148.73 C1.53 101.36, -0.24 49.56, 0.58 1.79 M-0.3 150.04 C-0.91 95.49, -0.76 39.91, -0.9 -0.68" stroke="#000000" stroke-width="1" fill="none"></path></g><g stroke-opacity="0.6" fill-opacity="0.6" stroke-linecap="round" transform="translate(25.967437744140625 455.62525939941406) rotate(0 468.5 25.606658935546875)"><path d="M-0.33 0.7 C287.34 -2.49, 574.34 -3.28, 937.63 0.23 M-0.28 0.18 C338.45 3.19, 677.08 3.32, 937.33 0.19 M938.33 -1.21 C937.62 19.26, 935.61 34.22, 936.36 52.95 M936.44 0.22 C935.95 16.68, 937.65 33.12, 936.73 50.58 M936.62 50.62 C586.48 53.18, 236.89 52.31, -0.49 51.03 M937.2 50.93 C633.06 50.51, 330.19 50.75, -0.04 51.37 M-0.44 50.84 C-2.18 35.65, 1.29 20.65, 0.02 -1.92 M-0.05 51.35 C0.42 33.88, -0.97 15.8, 0.35 0.21" stroke="#000000" stroke-width="1" fill="none"></path></g><g stroke-opacity="0.6" fill-opacity="0.6" stroke-linecap="round" transform="translate(487.6995544433594 173.4178009033203) rotate(0 226.67364501953125 119.83621215820312)"><path d="M-0.67 0.05 C145.95 -0.2, 292.67 -0.11, 453.37 0.38 M0.15 -0.07 C172.57 0.7, 345.84 0.83, 453.69 -0.23 M453.64 -1.07 C452.08 74.06, 451.43 149.56, 453.12 241.03 M453.96 -0.6 C454.81 49.44, 454.98 99.72, 453.55 239.07 M454.11 239.79 C305.27 238.13, 159.49 236.97, 0.74 239.56 M453.46 239.45 C320.79 241.83, 188.43 241.88, 0.18 240.14 M-0.32 238.28 C-2.42 184.89, -2.86 132.35, 1.46 0.19 M0.61 239.76 C1.04 158.99, 1.79 79.27, -0.3 -0.57" stroke="#000000" stroke-width="1" fill="none"></path></g><g stroke-opacity="0.6" fill-opacity="0.6" transform="translate(393.5510559082031 22.9114990234375) rotate(0 34 17.5)"><text x="0" y="25" font-family="Virgil, Segoe UI Emoji" font-size="28px" fill="#000000" text-anchor="start" style="white-space: pre;" direction="ltr">Title</text></g><g stroke-opacity="0.6" fill-opacity="0.6" transform="translate(382.8729553222656 72.85977172851562) rotate(0 53 9)"><text x="0" y="14" font-family="Helvetica, Segoe UI Emoji" font-size="16px" fill="#000000" text-anchor="start" style="white-space: pre;" direction="ltr">Navigation Bar</text></g><g stroke-opacity="0.7" fill-opacity="0.7" transform="translate(369.4983825683594 476.5042266845703) rotate(0 53 9)"><text x="0" y="14" font-family="Helvetica, Segoe UI Emoji" font-size="16px" fill="#000000" text-anchor="start" style="white-space: pre;" direction="ltr">Navigation Bar</text></g><g stroke-opacity="0.7" fill-opacity="0.7" transform="translate(144.33187866210938 330.20033264160156) rotate(0 35.5 9)"><text x="0" y="14" font-family="Helvetica, Segoe UI Emoji" font-size="16px" fill="#000000" text-anchor="start" style="white-space: pre;" direction="ltr">Main Info:</text></g><g stroke-opacity="0.7" fill-opacity="0.7" transform="translate(226.44818115234375 353.3227081298828) rotate(0 27 18)"><text x="0" y="14" font-family="Helvetica, Segoe UI Emoji" font-size="16px" fill="#000000" text-anchor="start" style="white-space: pre;" direction="ltr">- Iorum</text><text x="0" y="32" font-family="Helvetica, Segoe UI Emoji" font-size="16px" fill="#000000" text-anchor="start" style="white-space: pre;" direction="ltr">- Ipsum</text></g><g stroke-opacity="0.7" fill-opacity="0.7" transform="translate(134.80331420898438 139.64476013183594) rotate(0 63 18)"><text x="0" y="14" font-family="Helvetica, Segoe UI Emoji" font-size="16px" fill="#000000" text-anchor="start" style="white-space: pre;" direction="ltr">Introduction:</text><text x="0" y="32" font-family="Helvetica, Segoe UI Emoji" font-size="16px" fill="#000000" text-anchor="start" style="white-space: pre;" direction="ltr">     -Ioprum Ipsum</text></g><g stroke-opacity="0.7" fill-opacity="0.7" transform="translate(618.7115173339844 290.9982147216797) rotate(359.4558859245246 114.88726298014308 23.235626220703125)"><text x="0" y="37.47125244140622" font-family="Helvetica, Segoe UI Emoji" font-size="41.30777994791664px" fill="#000000" text-anchor="start" style="white-space: pre;" direction="ltr">iorum Ipsum</text></g></svg>